<svg xmlns="http://www.w3.org/2000/svg" xmlns:xlink="http://www.w3.org/1999/xlink" width="500" zoomAndPan="magnify" viewBox="0 0 375 374.999991" height="500" preserveAspectRatio="xMidYMid meet" version="1.0"><defs><g/></defs><g fill="#34e4ea" fill-opacity="1"><g transform="translate(150.068871, 272.772872)"><g><path d="M 19.078125 -12.90625 L 19.078125 -127.59375 C 19.078125 -132.082031 18.015625 -134.9375 15.890625 -136.15625 C 13.773438 -137.382812 10.40625 -138 5.78125 -138 L 5.78125 -140.5 L 53.765625 -140.5 L 53.765625 -138 C 49.140625 -138 45.734375 -137.382812 43.546875 -136.15625 C 41.367188 -134.9375 40.28125 -132.082031 40.28125 -127.59375 L 40.28125 -12.90625 C 40.28125 -8.414062 41.367188 -5.554688 43.546875 -4.328125 C 45.734375 -3.109375 49.078125 -2.5 53.578125 -2.5 L 53.765625 0 L 5.78125 0 L 5.78125 -2.5 C 10.40625 -2.5 13.773438 -3.109375 15.890625 -4.328125 C 18.015625 -5.554688 19.078125 -8.414062 19.078125 -12.90625 Z M 19.078125 -12.90625 "/></g></g></g><g fill="#ffffff" fill-opacity="1"><g transform="translate(126.666157, 270.314908)"><g><path d="M -0.246094 0 L -0.246094 -69.597656 L 22.636719 -69.597656 L 22.636719 -59.441406 C 22.636719 -47.707031 24.246094 -38.3125 27.464844 -31.265625 C 30.425781 -24.789062 34.304688 -20.109375 39.105469 -17.226562 C 44.105469 -14.230469 49.695312 -12.730469 55.875 -12.730469 C 59.699219 -12.730469 63.128906 -13.285156 66.164062 -14.394531 C 68.363281 -15.195312 70.109375 -16.5 71.398438 -18.300781 C 72.640625 -20.03125 73.261719 -22.71875 73.261719 -26.351562 C 73.261719 -29.628906 72.199219 -32.667969 70.070312 -35.480469 C 67.140625 -39.351562 63.246094 -43.113281 58.386719 -46.773438 C 52.921875 -50.886719 47.160156 -54.972656 41.109375 -59.03125 C 34.664062 -63.351562 28.519531 -67.847656 22.683594 -72.515625 C 16.242188 -77.671875 10.976562 -83.332031 6.890625 -89.5 C 2.261719 -96.484375 -0.0507812 -104.164062 -0.0507812 -112.546875 C -0.0507812 -122.648438 2.808594 -131.148438 8.527344 -138.046875 C 13.796875 -144.402344 20.40625 -149.15625 28.363281 -152.304688 C 35.902344 -155.289062 43.554688 -156.78125 51.320312 -156.78125 C 57.277344 -156.78125 62.460938 -156.15625 66.863281 -154.910156 C 71.113281 -153.707031 74.835938 -152.226562 78.027344 -150.460938 C 80.375 -149.164062 82.492188 -148.058594 84.375 -147.148438 C 85.023438 -146.832031 85.5625 -146.675781 85.992188 -146.675781 C 86.203125 -146.675781 86.359375 -146.683594 86.460938 -146.695312 C 86.382812 -146.6875 86.261719 -146.652344 86.101562 -146.601562 C 85.046875 -146.25 84.125 -145.5625 83.328125 -144.539062 C 82.863281 -143.941406 82.578125 -143.417969 82.476562 -142.96875 C 82.542969 -143.253906 82.574219 -143.746094 82.574219 -144.445312 L 82.574219 -154.601562 L 105.460938 -154.601562 L 105.460938 -87.527344 L 82.574219 -87.527344 L 82.574219 -97.683594 C 82.574219 -104.921875 81.253906 -111.15625 78.613281 -116.386719 C 76.082031 -121.398438 72.699219 -125.253906 68.457031 -127.953125 C 64.304688 -130.59375 59.519531 -131.914062 54.09375 -131.914062 C 51.222656 -131.914062 48.886719 -131.613281 47.082031 -131.015625 C 45.921875 -130.632812 45.078125 -130.152344 44.554688 -129.578125 C 42.890625 -127.75 42.054688 -125.242188 42.054688 -122.054688 C 42.054688 -117.699219 43.171875 -113.917969 45.398438 -110.703125 C 48.199219 -106.660156 51.863281 -102.957031 56.390625 -99.589844 C 61.597656 -95.71875 67.125 -91.933594 72.980469 -88.242188 C 79.367188 -84.21875 85.410156 -79.945312 91.113281 -75.425781 C 97.398438 -70.445312 102.558594 -64.847656 106.59375 -58.636719 C 111.125 -51.671875 113.386719 -43.617188 113.386719 -34.476562 C 113.386719 -26.175781 111.691406 -18.546875 108.296875 -11.59375 C 104.625 -4.070312 98.644531 1.894531 90.363281 6.292969 C 82.53125 10.453125 72.160156 12.53125 59.246094 12.53125 C 52.996094 12.53125 47.617188 11.96875 43.109375 10.84375 C 38.789062 9.761719 34.984375 8.460938 31.691406 6.933594 C 29.117188 5.742188 26.777344 4.710938 24.664062 3.84375 C 23.660156 3.425781 22.636719 3.21875 21.597656 3.21875 C 20.921875 3.21875 20.425781 3.261719 20.105469 3.34375 C 20.304688 3.292969 20.574219 3.136719 20.910156 2.878906 C 21.546875 2.394531 22.03125 1.78125 22.355469 1.039062 C 22.542969 0.609375 22.636719 0.261719 22.636719 0 L 22.636719 10.15625 L -0.246094 10.15625 Z M 20.0625 0 L 9.90625 0 L 9.90625 -10.15625 L 12.484375 -10.15625 L 12.484375 0 L 2.328125 0 C 2.328125 -2.574219 2.800781 -4.945312 3.75 -7.109375 C 4.835938 -9.585938 6.457031 -11.640625 8.613281 -13.28125 C 11.949219 -15.820312 16.277344 -17.089844 21.597656 -17.089844 C 25.316406 -17.089844 28.914062 -16.371094 32.398438 -14.9375 C 34.78125 -13.957031 37.390625 -12.808594 40.234375 -11.492188 C 42.359375 -10.507812 44.960938 -9.628906 48.035156 -8.859375 C 50.925781 -8.140625 54.664062 -7.777344 59.246094 -7.777344 C 68.785156 -7.777344 75.980469 -9.066406 80.832031 -11.644531 C 85.230469 -13.980469 88.300781 -16.933594 90.042969 -20.503906 C 92.066406 -24.644531 93.078125 -29.304688 93.078125 -34.476562 C 93.078125 -39.601562 91.90625 -43.964844 89.566406 -47.566406 C 86.734375 -51.921875 83.046875 -55.902344 78.496094 -59.507812 C 73.367188 -63.574219 67.917969 -67.425781 62.152344 -71.0625 C 55.855469 -75.03125 49.890625 -79.109375 44.265625 -83.292969 C 37.960938 -87.984375 32.773438 -93.265625 28.707031 -99.128906 C 24.066406 -105.824219 21.746094 -113.464844 21.746094 -122.054688 C 21.746094 -130.492188 24.347656 -137.5625 29.550781 -143.265625 C 35 -149.238281 43.179688 -152.222656 54.09375 -152.222656 C 63.460938 -152.222656 71.882812 -149.84375 79.359375 -145.085938 C 86.742188 -140.390625 92.535156 -133.875 96.742188 -125.542969 C 100.839844 -117.433594 102.886719 -108.148438 102.886719 -97.683594 L 92.730469 -97.683594 L 92.730469 -107.839844 L 95.304688 -107.839844 L 95.304688 -97.683594 L 85.152344 -97.683594 L 85.152344 -144.445312 L 95.304688 -144.445312 L 95.304688 -134.289062 L 92.730469 -134.289062 L 92.730469 -144.445312 L 102.886719 -144.445312 C 102.886719 -139.21875 101.710938 -135.089844 99.359375 -132.070312 C 96.402344 -128.265625 91.945312 -126.363281 85.992188 -126.363281 C 82.460938 -126.363281 78.972656 -127.199219 75.527344 -128.863281 C 73.316406 -129.9375 70.871094 -131.207031 68.203125 -132.683594 C 66.375 -133.695312 64.085938 -134.589844 61.332031 -135.367188 C 58.738281 -136.101562 55.398438 -136.46875 51.320312 -136.46875 C 46.136719 -136.46875 40.976562 -135.453125 35.835938 -133.417969 C 31.109375 -131.546875 27.21875 -128.769531 24.164062 -125.085938 C 21.5625 -121.945312 20.261719 -117.765625 20.261719 -112.546875 C 20.261719 -108.242188 21.449219 -104.300781 23.820312 -100.71875 C 26.738281 -96.316406 30.585938 -92.203125 35.371094 -88.375 C 40.761719 -84.0625 46.445312 -79.90625 52.414062 -75.902344 C 58.777344 -71.640625 64.839844 -67.335938 70.605469 -63 C 76.972656 -58.203125 82.191406 -53.117188 86.261719 -47.738281 C 91.136719 -41.304688 93.574219 -34.175781 93.574219 -26.351562 C 93.574219 -18.363281 91.683594 -11.734375 87.90625 -6.464844 C 84.179688 -1.269531 79.253906 2.449219 73.128906 4.683594 C 67.84375 6.613281 62.09375 7.578125 55.875 7.578125 C 45.941406 7.578125 36.871094 5.117188 28.65625 0.1875 C 20.25 -4.855469 13.695312 -12.527344 8.992188 -22.828125 C 4.550781 -32.554688 2.328125 -44.761719 2.328125 -59.441406 L 12.484375 -59.441406 L 12.484375 -49.289062 L 9.90625 -49.289062 L 9.90625 -59.441406 L 20.0625 -59.441406 Z M 20.0625 0 "/></g></g></g><g fill="#ffffff" fill-opacity="1"><g transform="translate(237.830212, 270.314908)"><g><path d="M -0.246094 -8.71875 C -0.246094 -14.5625 1.832031 -19.5625 5.996094 -23.726562 C 10.15625 -27.886719 15.160156 -29.96875 21.003906 -29.96875 C 26.84375 -29.96875 31.847656 -27.886719 36.011719 -23.726562 C 40.171875 -19.5625 42.253906 -14.5625 42.253906 -8.71875 C 42.253906 -2.875 40.171875 2.125 36.011719 6.289062 C 31.847656 10.453125 26.84375 12.53125 21.003906 12.53125 C 15.160156 12.53125 10.15625 10.453125 5.996094 6.289062 C 1.832031 2.125 -0.246094 -2.875 -0.246094 -8.71875 Z M 20.0625 -8.71875 C 20.0625 -8.484375 20.160156 -8.269531 20.355469 -8.074219 C 20.554688 -7.875 20.769531 -7.777344 21.003906 -7.777344 C 21.238281 -7.777344 21.453125 -7.875 21.648438 -8.074219 C 21.84375 -8.269531 21.945312 -8.484375 21.945312 -8.71875 C 21.945312 -8.953125 21.84375 -9.167969 21.648438 -9.363281 C 21.453125 -9.5625 21.238281 -9.660156 21.003906 -9.660156 C 20.769531 -9.660156 20.554688 -9.5625 20.355469 -9.363281 C 20.160156 -9.167969 20.0625 -8.953125 20.0625 -8.71875 Z M 20.0625 -8.71875 "/></g></g></g><g fill="#1c1c22" fill-opacity="1"><g transform="translate(126.666157, 270.314908)"><g><path d="M 9.90625 0 L 9.90625 -59.4375 L 12.484375 -59.4375 C 12.484375 -46.226562 14.394531 -35.429688 18.21875 -27.046875 C 22.050781 -18.660156 27.269531 -12.484375 33.875 -8.515625 C 40.488281 -4.554688 47.820312 -2.578125 55.875 -2.578125 C 60.894531 -2.578125 65.484375 -3.335938 69.640625 -4.859375 C 73.804688 -6.378906 77.144531 -8.890625 79.65625 -12.390625 C 82.164062 -15.890625 83.421875 -20.546875 83.421875 -26.359375 C 83.421875 -31.898438 81.671875 -36.984375 78.171875 -41.609375 C 74.671875 -46.234375 70.113281 -50.65625 64.5 -54.875 C 58.882812 -59.101562 52.972656 -63.296875 46.765625 -67.453125 C 40.554688 -71.617188 34.644531 -75.945312 29.03125 -80.4375 C 23.414062 -84.9375 18.859375 -89.828125 15.359375 -95.109375 C 11.859375 -100.390625 10.109375 -106.203125 10.109375 -112.546875 C 10.109375 -120.203125 12.1875 -126.539062 16.34375 -131.5625 C 20.507812 -136.582031 25.757812 -140.347656 32.09375 -142.859375 C 38.4375 -145.367188 44.84375 -146.625 51.3125 -146.625 C 56.332031 -146.625 60.59375 -146.128906 64.09375 -145.140625 C 67.59375 -144.148438 70.597656 -142.957031 73.109375 -141.5625 C 75.617188 -140.175781 77.894531 -138.988281 79.9375 -138 C 81.988281 -137.007812 84.007812 -136.515625 86 -136.515625 C 88.632812 -136.515625 90.414062 -137.109375 91.34375 -138.296875 C 92.269531 -139.484375 92.734375 -141.53125 92.734375 -144.4375 L 95.3125 -144.4375 L 95.3125 -97.6875 L 92.734375 -97.6875 C 92.734375 -106.53125 91.046875 -114.285156 87.671875 -120.953125 C 84.304688 -127.628906 79.71875 -132.816406 73.90625 -136.515625 C 68.09375 -140.210938 61.488281 -142.0625 54.09375 -142.0625 C 46.164062 -142.0625 40.484375 -140.175781 37.046875 -136.40625 C 33.617188 -132.644531 31.90625 -127.859375 31.90625 -122.046875 C 31.90625 -115.578125 33.617188 -109.863281 37.046875 -104.90625 C 40.484375 -99.957031 44.910156 -95.46875 50.328125 -91.4375 C 55.742188 -87.414062 61.488281 -83.488281 67.5625 -79.65625 C 73.644531 -75.820312 79.390625 -71.757812 84.796875 -67.46875 C 90.210938 -63.175781 94.640625 -58.382812 98.078125 -53.09375 C 101.515625 -47.8125 103.234375 -41.601562 103.234375 -34.46875 C 103.234375 -27.738281 101.878906 -21.597656 99.171875 -16.046875 C 96.460938 -10.503906 91.9375 -6.046875 85.59375 -2.671875 C 79.257812 0.691406 70.476562 2.375 59.25 2.375 C 53.832031 2.375 49.273438 1.910156 45.578125 0.984375 C 41.878906 0.0664062 38.675781 -1.015625 35.96875 -2.265625 C 33.257812 -3.523438 30.78125 -4.617188 28.53125 -5.546875 C 26.28125 -6.472656 23.96875 -6.9375 21.59375 -6.9375 C 15.519531 -6.9375 12.484375 -4.625 12.484375 0 Z M 9.90625 0 "/></g></g></g><g fill="#34e4ea" fill-opacity="1"><g transform="translate(237.830212, 270.314908)"><g><path d="M 9.90625 -8.71875 C 9.90625 -11.757812 10.992188 -14.367188 13.171875 -16.546875 C 15.359375 -18.722656 17.96875 -19.8125 21 -19.8125 C 24.039062 -19.8125 26.648438 -18.722656 28.828125 -16.546875 C 31.003906 -14.367188 32.09375 -11.757812 32.09375 -8.71875 C 32.09375 -5.675781 31.003906 -3.066406 28.828125 -0.890625 C 26.648438 1.285156 24.039062 2.375 21 2.375 C 17.96875 2.375 15.359375 1.285156 13.171875 -0.890625 C 10.992188 -3.066406 9.90625 -5.675781 9.90625 -8.71875 Z M 9.90625 -8.71875 "/></g></g></g></svg>